<svg width="240" height="77" viewBox="0 0 240 77" fill="none" xmlns="http://www.w3.org/2000/svg">
<path d="M21.48 34.8L17.88 29.96C16.8133 30.1733 15.7733 30.28 14.76 30.28C12.12 30.28 9.69333 29.6667 7.48 28.44C5.29333 27.2133 3.54667 25.5067 2.24 23.32C0.96 21.1067 0.32 18.6267 0.32 15.88C0.32 13.1333 0.96 10.6667 2.24 8.48C3.54667 6.29333 5.29333 4.58667 7.48 3.36C9.69333 2.13333 12.12 1.52 14.76 1.52C17.4 1.52 19.8133 2.13333 22 3.36C24.2133 4.58667 25.9467 6.29333 27.2 8.48C28.48 10.6667 29.12 13.1333 29.12 15.88C29.12 18.28 28.6267 20.48 27.64 22.48C26.68 24.4533 25.3333 26.0933 23.6 27.4L29.76 34.8H21.48ZM7.32 15.88C7.32 18.36 7.98667 20.3467 9.32 21.84C10.68 23.3067 12.4933 24.04 14.76 24.04C17 24.04 18.7867 23.2933 20.12 21.8C21.48 20.3067 22.16 18.3333 22.16 15.88C22.16 13.4 21.48 11.4267 20.12 9.96C18.7867 8.46666 17 7.72 14.76 7.72C12.4933 7.72 10.68 8.45333 9.32 9.92C7.98667 11.3867 7.32 13.3733 7.32 15.88ZM55.0434 7.68V30H48.2034V26.96C47.5101 27.9467 46.5634 28.7467 45.3634 29.36C44.1901 29.9467 42.8834 30.24 41.4434 30.24C39.7368 30.24 38.2301 29.8667 36.9234 29.12C35.6168 28.3467 34.6034 27.24 33.8834 25.8C33.1634 24.36 32.8034 22.6667 32.8034 20.72V7.68H39.6034V19.8C39.6034 21.2933 39.9901 22.4533 40.7634 23.28C41.5368 24.1067 42.5768 24.52 43.8834 24.52C45.2168 24.52 46.2701 24.1067 47.0434 23.28C47.8168 22.4533 48.2034 21.2933 48.2034 19.8V7.68H55.0434ZM66.7966 11.4C67.5966 10.1733 68.5966 9.21333 69.7966 8.52C70.9966 7.8 72.3299 7.44 73.7966 7.44V14.68H71.9166C70.2099 14.68 68.9299 15.0533 68.0766 15.8C67.2232 16.52 66.7966 17.8 66.7966 19.64V30H59.9566V7.68H66.7966V11.4ZM83.9059 10.84C84.5459 9.8 85.4659 8.96 86.6659 8.32C87.8659 7.68 89.2393 7.36 90.7859 7.36C92.6259 7.36 94.2926 7.82667 95.7859 8.76C97.2793 9.69333 98.4526 11.0267 99.3059 12.76C100.186 14.4933 100.626 16.5067 100.626 18.8C100.626 21.0933 100.186 23.12 99.3059 24.88C98.4526 26.6133 97.2793 27.96 95.7859 28.92C94.2926 29.8533 92.6259 30.32 90.7859 30.32C89.2126 30.32 87.8393 30.0133 86.6659 29.4C85.4926 28.76 84.5726 27.92 83.9059 26.88V30H77.0659V0.4H83.9059V10.84ZM93.6659 18.8C93.6659 17.0933 93.1859 15.76 92.2259 14.8C91.2926 13.8133 90.1326 13.32 88.7459 13.32C87.3859 13.32 86.2259 13.8133 85.2659 14.8C84.3326 15.7867 83.8659 17.1333 83.8659 18.84C83.8659 20.5467 84.3326 21.8933 85.2659 22.88C86.2259 23.8667 87.3859 24.36 88.7459 24.36C90.1059 24.36 91.2659 23.8667 92.2259 22.88C93.1859 21.8667 93.6659 20.5067 93.6659 18.8ZM102.854 18.8C102.854 16.5067 103.281 14.4933 104.134 12.76C105.014 11.0267 106.201 9.69333 107.694 8.76C109.188 7.82667 110.854 7.36 112.694 7.36C114.268 7.36 115.641 7.68 116.814 8.32C118.014 8.96 118.934 9.8 119.574 10.84V7.68H126.414V30H119.574V26.84C118.908 27.88 117.974 28.72 116.774 29.36C115.601 30 114.228 30.32 112.654 30.32C110.841 30.32 109.188 29.8533 107.694 28.92C106.201 27.96 105.014 26.6133 104.134 24.88C103.281 23.12 102.854 21.0933 102.854 18.8ZM119.574 18.84C119.574 17.1333 119.094 15.7867 118.134 14.8C117.201 13.8133 116.054 13.32 114.694 13.32C113.334 13.32 112.174 13.8133 111.214 14.8C110.281 15.76 109.814 17.0933 109.814 18.8C109.814 20.5067 110.281 21.8667 111.214 22.88C112.174 23.8667 113.334 24.36 114.694 24.36C116.054 24.36 117.201 23.8667 118.134 22.88C119.094 21.8933 119.574 20.5467 119.574 18.84ZM144.963 7.44C147.576 7.44 149.656 8.29333 151.203 10C152.776 11.68 153.563 14 153.563 16.96V30H146.763V17.88C146.763 16.3867 146.376 15.2267 145.603 14.4C144.829 13.5733 143.789 13.16 142.483 13.16C141.176 13.16 140.136 13.5733 139.363 14.4C138.589 15.2267 138.203 16.3867 138.203 17.88V30H131.363V7.68H138.203V10.64C138.896 9.65333 139.829 8.88 141.003 8.32C142.176 7.73333 143.496 7.44 144.963 7.44ZM12 47.92C14.96 47.92 17.5467 48.5067 19.76 49.68C21.9733 50.8533 23.68 52.5067 24.88 54.64C26.1067 56.7467 26.72 59.1867 26.72 61.96C26.72 64.7067 26.1067 67.1467 24.88 69.28C23.68 71.4133 21.96 73.0667 19.72 74.24C17.5067 75.4133 14.9333 76 12 76H1.48V47.92H12ZM11.56 70.08C14.1467 70.08 16.16 69.3733 17.6 67.96C19.04 66.5467 19.76 64.5467 19.76 61.96C19.76 59.3733 19.04 57.36 17.6 55.92C16.16 54.48 14.1467 53.76 11.56 53.76H8.32V70.08H11.56ZM33.9825 51.36C32.7825 51.36 31.7958 51.0133 31.0225 50.32C30.2758 49.6 29.9025 48.72 29.9025 47.68C29.9025 46.6133 30.2758 45.7333 31.0225 45.04C31.7958 44.32 32.7825 43.96 33.9825 43.96C35.1558 43.96 36.1158 44.32 36.8625 45.04C37.6358 45.7333 38.0225 46.6133 38.0225 47.68C38.0225 48.72 37.6358 49.6 36.8625 50.32C36.1158 51.0133 35.1558 51.36 33.9825 51.36ZM37.3825 53.68V76H30.5425V53.68H37.3825ZM51.4194 76.32C49.4727 76.32 47.7394 75.9867 46.2194 75.32C44.6994 74.6533 43.4994 73.7467 42.6194 72.6C41.7394 71.4267 41.246 70.12 41.1394 68.68H47.8994C47.9794 69.4533 48.3394 70.08 48.9794 70.56C49.6194 71.04 50.406 71.28 51.3394 71.28C52.1927 71.28 52.846 71.12 53.2994 70.8C53.7794 70.4533 54.0194 70.0133 54.0194 69.48C54.0194 68.84 53.686 68.3733 53.0194 68.08C52.3527 67.76 51.2727 67.4133 49.7794 67.04C48.1794 66.6667 46.846 66.28 45.7794 65.88C44.7127 65.4533 43.7927 64.8 43.0194 63.92C42.246 63.0133 41.8594 61.8 41.8594 60.28C41.8594 59 42.206 57.84 42.8994 56.8C43.6194 55.7333 44.6594 54.8933 46.0194 54.28C47.406 53.6667 49.046 53.36 50.9394 53.36C53.7394 53.36 55.9394 54.0533 57.5394 55.44C59.166 56.8267 60.0994 58.6667 60.3394 60.96H54.0194C53.9127 60.1867 53.566 59.5733 52.9794 59.12C52.4194 58.6667 51.6727 58.44 50.7394 58.44C49.9394 58.44 49.326 58.6 48.8994 58.92C48.4727 59.2133 48.2594 59.6267 48.2594 60.16C48.2594 60.8 48.5927 61.28 49.2594 61.6C49.9527 61.92 51.0194 62.24 52.4594 62.56C54.1127 62.9867 55.4594 63.4133 56.4994 63.84C57.5394 64.24 58.446 64.9067 59.2194 65.84C60.0194 66.7467 60.4327 67.9733 60.4594 69.52C60.4594 70.8267 60.086 72 59.3394 73.04C58.6194 74.0533 57.566 74.8533 56.1794 75.44C54.8194 76.0267 53.2327 76.32 51.4194 76.32ZM77.0841 70.2V76H73.6041C71.1241 76 69.1907 75.4 67.8041 74.2C66.4174 72.9733 65.7241 70.9867 65.7241 68.24V59.36H63.0041V53.68H65.7241V48.24H72.5641V53.68H77.0441V59.36H72.5641V68.32C72.5641 68.9867 72.7241 69.4667 73.0441 69.76C73.3641 70.0533 73.8974 70.2 74.6441 70.2H77.0841ZM87.7341 57.4C88.5341 56.1733 89.5341 55.2133 90.7341 54.52C91.9341 53.8 93.2674 53.44 94.7341 53.44V60.68H92.8541C91.1474 60.68 89.8674 61.0533 89.0141 61.8C88.1607 62.52 87.7341 63.8 87.7341 65.64V76H80.8941V53.68H87.7341V57.4ZM101.443 51.36C100.243 51.36 99.2568 51.0133 98.4834 50.32C97.7368 49.6 97.3634 48.72 97.3634 47.68C97.3634 46.6133 97.7368 45.7333 98.4834 45.04C99.2568 44.32 100.243 43.96 101.443 43.96C102.617 43.96 103.577 44.32 104.323 45.04C105.097 45.7333 105.483 46.6133 105.483 47.68C105.483 48.72 105.097 49.6 104.323 50.32C103.577 51.0133 102.617 51.36 101.443 51.36ZM104.843 53.68V76H98.0034V53.68H104.843ZM116.64 56.84C117.28 55.8 118.2 54.96 119.4 54.32C120.6 53.68 121.974 53.36 123.52 53.36C125.36 53.36 127.027 53.8267 128.52 54.76C130.014 55.6933 131.187 57.0267 132.04 58.76C132.92 60.4933 133.36 62.5067 133.36 64.8C133.36 67.0933 132.92 69.12 132.04 70.88C131.187 72.6133 130.014 73.96 128.52 74.92C127.027 75.8533 125.36 76.32 123.52 76.32C121.947 76.32 120.574 76.0133 119.4 75.4C118.227 74.76 117.307 73.92 116.64 72.88V76H109.8V46.4H116.64V56.84ZM126.4 64.8C126.4 63.0933 125.92 61.76 124.96 60.8C124.027 59.8133 122.867 59.32 121.48 59.32C120.12 59.32 118.96 59.8133 118 60.8C117.067 61.7867 116.6 63.1333 116.6 64.84C116.6 66.5467 117.067 67.8933 118 68.88C118.96 69.8667 120.12 70.36 121.48 70.36C122.84 70.36 124 69.8667 124.96 68.88C125.92 67.8667 126.4 66.5067 126.4 64.8ZM158.989 53.68V76H152.149V72.96C151.455 73.9467 150.509 74.7467 149.309 75.36C148.135 75.9467 146.829 76.24 145.389 76.24C143.682 76.24 142.175 75.8667 140.869 75.12C139.562 74.3467 138.549 73.24 137.829 71.8C137.109 70.36 136.749 68.6667 136.749 66.72V53.68H143.549V65.8C143.549 67.2933 143.935 68.4533 144.709 69.28C145.482 70.1067 146.522 70.52 147.829 70.52C149.162 70.52 150.215 70.1067 150.989 69.28C151.762 68.4533 152.149 67.2933 152.149 65.8V53.68H158.989ZM176.342 70.2V76H172.862C170.382 76 168.449 75.4 167.062 74.2C165.675 72.9733 164.982 70.9867 164.982 68.24V59.36H162.262V53.68H164.982V48.24H171.822V53.68H176.302V59.36H171.822V68.32C171.822 68.9867 171.982 69.4667 172.302 69.76C172.622 70.0533 173.155 70.2 173.902 70.2H176.342ZM183.592 51.36C182.392 51.36 181.405 51.0133 180.632 50.32C179.885 49.6 179.512 48.72 179.512 47.68C179.512 46.6133 179.885 45.7333 180.632 45.04C181.405 44.32 182.392 43.96 183.592 43.96C184.765 43.96 185.725 44.32 186.472 45.04C187.245 45.7333 187.632 46.6133 187.632 47.68C187.632 48.72 187.245 49.6 186.472 50.32C185.725 51.0133 184.765 51.36 183.592 51.36ZM186.992 53.68V76H180.152V53.68H186.992ZM202.109 76.32C199.922 76.32 197.949 75.8533 196.189 74.92C194.455 73.9867 193.082 72.6533 192.069 70.92C191.082 69.1867 190.589 67.16 190.589 64.84C190.589 62.5467 191.095 60.5333 192.109 58.8C193.122 57.04 194.509 55.6933 196.269 54.76C198.029 53.8267 200.002 53.36 202.189 53.36C204.375 53.36 206.349 53.8267 208.109 54.76C209.869 55.6933 211.255 57.04 212.269 58.8C213.282 60.5333 213.789 62.5467 213.789 64.84C213.789 67.1333 213.269 69.16 212.229 70.92C211.215 72.6533 209.815 73.9867 208.029 74.92C206.269 75.8533 204.295 76.32 202.109 76.32ZM202.109 70.4C203.415 70.4 204.522 69.92 205.429 68.96C206.362 68 206.829 66.6267 206.829 64.84C206.829 63.0533 206.375 61.68 205.469 60.72C204.589 59.76 203.495 59.28 202.189 59.28C200.855 59.28 199.749 59.76 198.869 60.72C197.989 61.6533 197.549 63.0267 197.549 64.84C197.549 66.6267 197.975 68 198.829 68.96C199.709 69.92 200.802 70.4 202.109 70.4ZM231.018 53.44C233.631 53.44 235.711 54.2933 237.258 56C238.831 57.68 239.618 60 239.618 62.96V76H232.818V63.88C232.818 62.3867 232.431 61.2267 231.658 60.4C230.884 59.5733 229.844 59.16 228.538 59.16C227.231 59.16 226.191 59.5733 225.418 60.4C224.644 61.2267 224.258 62.3867 224.258 63.88V76H217.418V53.68H224.258V56.64C224.951 55.6533 225.884 54.88 227.058 54.32C228.231 53.7333 229.551 53.44 231.018 53.44Z" fill="black"/>
</svg>
