<svg width="261" height="92" viewBox="0 0 261 92" fill="none" xmlns="http://www.w3.org/2000/svg">
<path d="M22.48 41.8L18.88 36.96C17.8133 37.1733 16.7733 37.28 15.76 37.28C13.12 37.28 10.6933 36.6667 8.48 35.44C6.29333 34.2133 4.54667 32.5067 3.24 30.32C1.96 28.1067 1.32 25.6267 1.32 22.88C1.32 20.1333 1.96 17.6667 3.24 15.48C4.54667 13.2933 6.29333 11.5867 8.48 10.36C10.6933 9.13333 13.12 8.52 15.76 8.52C18.4 8.52 20.8133 9.13333 23 10.36C25.2133 11.5867 26.9467 13.2933 28.2 15.48C29.48 17.6667 30.12 20.1333 30.12 22.88C30.12 25.28 29.6267 27.48 28.64 29.48C27.68 31.4533 26.3333 33.0933 24.6 34.4L30.76 41.8H22.48ZM8.32 22.88C8.32 25.36 8.98667 27.3467 10.32 28.84C11.68 30.3067 13.4933 31.04 15.76 31.04C18 31.04 19.7867 30.2933 21.12 28.8C22.48 27.3067 23.16 25.3333 23.16 22.88C23.16 20.4 22.48 18.4267 21.12 16.96C19.7867 15.4667 18 14.72 15.76 14.72C13.4933 14.72 11.68 15.4533 10.32 16.92C8.98667 18.3867 8.32 20.3733 8.32 22.88ZM56.0434 14.68V37H49.2034V33.96C48.5101 34.9467 47.5634 35.7467 46.3634 36.36C45.1901 36.9467 43.8834 37.24 42.4434 37.24C40.7368 37.24 39.2301 36.8667 37.9234 36.12C36.6168 35.3467 35.6034 34.24 34.8834 32.8C34.1634 31.36 33.8034 29.6667 33.8034 27.72V14.68H40.6034V26.8C40.6034 28.2933 40.9901 29.4533 41.7634 30.28C42.5368 31.1067 43.5768 31.52 44.8834 31.52C46.2168 31.52 47.2701 31.1067 48.0434 30.28C48.8168 29.4533 49.2034 28.2933 49.2034 26.8V14.68H56.0434ZM67.7966 18.4C68.5966 17.1733 69.5966 16.2133 70.7966 15.52C71.9966 14.8 73.3299 14.44 74.7966 14.44V21.68H72.9166C71.2099 21.68 69.9299 22.0533 69.0766 22.8C68.2232 23.52 67.7966 24.8 67.7966 26.64V37H60.9566V14.68H67.7966V18.4ZM84.9059 17.84C85.5459 16.8 86.4659 15.96 87.6659 15.32C88.8659 14.68 90.2393 14.36 91.7859 14.36C93.6259 14.36 95.2926 14.8267 96.7859 15.76C98.2793 16.6933 99.4526 18.0267 100.306 19.76C101.186 21.4933 101.626 23.5067 101.626 25.8C101.626 28.0933 101.186 30.12 100.306 31.88C99.4526 33.6133 98.2793 34.96 96.7859 35.92C95.2926 36.8533 93.6259 37.32 91.7859 37.32C90.2126 37.32 88.8393 37.0133 87.6659 36.4C86.4926 35.76 85.5726 34.92 84.9059 33.88V37H78.0659V7.4H84.9059V17.84ZM94.6659 25.8C94.6659 24.0933 94.1859 22.76 93.2259 21.8C92.2926 20.8133 91.1326 20.32 89.7459 20.32C88.3859 20.32 87.2259 20.8133 86.2659 21.8C85.3326 22.7867 84.8659 24.1333 84.8659 25.84C84.8659 27.5467 85.3326 28.8933 86.2659 29.88C87.2259 30.8667 88.3859 31.36 89.7459 31.36C91.1059 31.36 92.2659 30.8667 93.2259 29.88C94.1859 28.8667 94.6659 27.5067 94.6659 25.8ZM103.854 25.8C103.854 23.5067 104.281 21.4933 105.134 19.76C106.014 18.0267 107.201 16.6933 108.694 15.76C110.188 14.8267 111.854 14.36 113.694 14.36C115.268 14.36 116.641 14.68 117.814 15.32C119.014 15.96 119.934 16.8 120.574 17.84V14.68H127.414V37H120.574V33.84C119.908 34.88 118.974 35.72 117.774 36.36C116.601 37 115.228 37.32 113.654 37.32C111.841 37.32 110.188 36.8533 108.694 35.92C107.201 34.96 106.014 33.6133 105.134 31.88C104.281 30.12 103.854 28.0933 103.854 25.8ZM120.574 25.84C120.574 24.1333 120.094 22.7867 119.134 21.8C118.201 20.8133 117.054 20.32 115.694 20.32C114.334 20.32 113.174 20.8133 112.214 21.8C111.281 22.76 110.814 24.0933 110.814 25.8C110.814 27.5067 111.281 28.8667 112.214 29.88C113.174 30.8667 114.334 31.36 115.694 31.36C117.054 31.36 118.201 30.8667 119.134 29.88C120.094 28.8933 120.574 27.5467 120.574 25.84ZM145.963 14.44C148.576 14.44 150.656 15.2933 152.203 17C153.776 18.68 154.563 21 154.563 23.96V37H147.763V24.88C147.763 23.3867 147.376 22.2267 146.603 21.4C145.829 20.5733 144.789 20.16 143.483 20.16C142.176 20.16 141.136 20.5733 140.363 21.4C139.589 22.2267 139.203 23.3867 139.203 24.88V37H132.363V14.68H139.203V17.64C139.896 16.6533 140.829 15.88 142.003 15.32C143.176 14.7333 144.496 14.44 145.963 14.44ZM13 54.92C15.96 54.92 18.5467 55.5067 20.76 56.68C22.9733 57.8533 24.68 59.5067 25.88 61.64C27.1067 63.7467 27.72 66.1867 27.72 68.96C27.72 71.7067 27.1067 74.1467 25.88 76.28C24.68 78.4133 22.96 80.0667 20.72 81.24C18.5067 82.4133 15.9333 83 13 83H2.48V54.92H13ZM12.56 77.08C15.1467 77.08 17.16 76.3733 18.6 74.96C20.04 73.5467 20.76 71.5467 20.76 68.96C20.76 66.3733 20.04 64.36 18.6 62.92C17.16 61.48 15.1467 60.76 12.56 60.76H9.32V77.08H12.56ZM34.9825 58.36C33.7825 58.36 32.7958 58.0133 32.0225 57.32C31.2758 56.6 30.9025 55.72 30.9025 54.68C30.9025 53.6133 31.2758 52.7333 32.0225 52.04C32.7958 51.32 33.7825 50.96 34.9825 50.96C36.1558 50.96 37.1158 51.32 37.8625 52.04C38.6358 52.7333 39.0225 53.6133 39.0225 54.68C39.0225 55.72 38.6358 56.6 37.8625 57.32C37.1158 58.0133 36.1558 58.36 34.9825 58.36ZM38.3825 60.68V83H31.5425V60.68H38.3825ZM52.4194 83.32C50.4727 83.32 48.7394 82.9867 47.2194 82.32C45.6994 81.6533 44.4994 80.7467 43.6194 79.6C42.7394 78.4267 42.246 77.12 42.1394 75.68H48.8994C48.9794 76.4533 49.3394 77.08 49.9794 77.56C50.6194 78.04 51.406 78.28 52.3394 78.28C53.1927 78.28 53.846 78.12 54.2994 77.8C54.7794 77.4533 55.0194 77.0133 55.0194 76.48C55.0194 75.84 54.686 75.3733 54.0194 75.08C53.3527 74.76 52.2727 74.4133 50.7794 74.04C49.1794 73.6667 47.846 73.28 46.7794 72.88C45.7127 72.4533 44.7927 71.8 44.0194 70.92C43.246 70.0133 42.8594 68.8 42.8594 67.28C42.8594 66 43.206 64.84 43.8994 63.8C44.6194 62.7333 45.6594 61.8933 47.0194 61.28C48.406 60.6667 50.046 60.36 51.9394 60.36C54.7394 60.36 56.9394 61.0533 58.5394 62.44C60.166 63.8267 61.0994 65.6667 61.3394 67.96H55.0194C54.9127 67.1867 54.566 66.5733 53.9794 66.12C53.4194 65.6667 52.6727 65.44 51.7394 65.44C50.9394 65.44 50.326 65.6 49.8994 65.92C49.4727 66.2133 49.2594 66.6267 49.2594 67.16C49.2594 67.8 49.5927 68.28 50.2594 68.6C50.9527 68.92 52.0194 69.24 53.4594 69.56C55.1127 69.9867 56.4594 70.4133 57.4994 70.84C58.5394 71.24 59.446 71.9067 60.2194 72.84C61.0194 73.7467 61.4327 74.9733 61.4594 76.52C61.4594 77.8267 61.086 79 60.3394 80.04C59.6194 81.0533 58.566 81.8533 57.1794 82.44C55.8194 83.0267 54.2327 83.32 52.4194 83.32ZM78.0841 77.2V83H74.6041C72.1241 83 70.1907 82.4 68.8041 81.2C67.4174 79.9733 66.7241 77.9867 66.7241 75.24V66.36H64.0041V60.68H66.7241V55.24H73.5641V60.68H78.0441V66.36H73.5641V75.32C73.5641 75.9867 73.7241 76.4667 74.0441 76.76C74.3641 77.0533 74.8974 77.2 75.6441 77.2H78.0841ZM88.7341 64.4C89.5341 63.1733 90.5341 62.2133 91.7341 61.52C92.9341 60.8 94.2674 60.44 95.7341 60.44V67.68H93.8541C92.1474 67.68 90.8674 68.0533 90.0141 68.8C89.1607 69.52 88.7341 70.8 88.7341 72.64V83H81.8941V60.68H88.7341V64.4ZM102.443 58.36C101.243 58.36 100.257 58.0133 99.4834 57.32C98.7368 56.6 98.3634 55.72 98.3634 54.68C98.3634 53.6133 98.7368 52.7333 99.4834 52.04C100.257 51.32 101.243 50.96 102.443 50.96C103.617 50.96 104.577 51.32 105.323 52.04C106.097 52.7333 106.483 53.6133 106.483 54.68C106.483 55.72 106.097 56.6 105.323 57.32C104.577 58.0133 103.617 58.36 102.443 58.36ZM105.843 60.68V83H99.0034V60.68H105.843ZM117.64 63.84C118.28 62.8 119.2 61.96 120.4 61.32C121.6 60.68 122.974 60.36 124.52 60.36C126.36 60.36 128.027 60.8267 129.52 61.76C131.014 62.6933 132.187 64.0267 133.04 65.76C133.92 67.4933 134.36 69.5067 134.36 71.8C134.36 74.0933 133.92 76.12 133.04 77.88C132.187 79.6133 131.014 80.96 129.52 81.92C128.027 82.8533 126.36 83.32 124.52 83.32C122.947 83.32 121.574 83.0133 120.4 82.4C119.227 81.76 118.307 80.92 117.64 79.88V83H110.8V53.4H117.64V63.84ZM127.4 71.8C127.4 70.0933 126.92 68.76 125.96 67.8C125.027 66.8133 123.867 66.32 122.48 66.32C121.12 66.32 119.96 66.8133 119 67.8C118.067 68.7867 117.6 70.1333 117.6 71.84C117.6 73.5467 118.067 74.8933 119 75.88C119.96 76.8667 121.12 77.36 122.48 77.36C123.84 77.36 125 76.8667 125.96 75.88C126.92 74.8667 127.4 73.5067 127.4 71.8ZM159.989 60.68V83H153.149V79.96C152.455 80.9467 151.509 81.7467 150.309 82.36C149.135 82.9467 147.829 83.24 146.389 83.24C144.682 83.24 143.175 82.8667 141.869 82.12C140.562 81.3467 139.549 80.24 138.829 78.8C138.109 77.36 137.749 75.6667 137.749 73.72V60.68H144.549V72.8C144.549 74.2933 144.935 75.4533 145.709 76.28C146.482 77.1067 147.522 77.52 148.829 77.52C150.162 77.52 151.215 77.1067 151.989 76.28C152.762 75.4533 153.149 74.2933 153.149 72.8V60.68H159.989ZM177.342 77.2V83H173.862C171.382 83 169.449 82.4 168.062 81.2C166.675 79.9733 165.982 77.9867 165.982 75.24V66.36H163.262V60.68H165.982V55.24H172.822V60.68H177.302V66.36H172.822V75.32C172.822 75.9867 172.982 76.4667 173.302 76.76C173.622 77.0533 174.155 77.2 174.902 77.2H177.342ZM184.592 58.36C183.392 58.36 182.405 58.0133 181.632 57.32C180.885 56.6 180.512 55.72 180.512 54.68C180.512 53.6133 180.885 52.7333 181.632 52.04C182.405 51.32 183.392 50.96 184.592 50.96C185.765 50.96 186.725 51.32 187.472 52.04C188.245 52.7333 188.632 53.6133 188.632 54.68C188.632 55.72 188.245 56.6 187.472 57.32C186.725 58.0133 185.765 58.36 184.592 58.36ZM187.992 60.68V83H181.152V60.68H187.992ZM203.109 83.32C200.922 83.32 198.949 82.8533 197.189 81.92C195.455 80.9867 194.082 79.6533 193.069 77.92C192.082 76.1867 191.589 74.16 191.589 71.84C191.589 69.5467 192.095 67.5333 193.109 65.8C194.122 64.04 195.509 62.6933 197.269 61.76C199.029 60.8267 201.002 60.36 203.189 60.36C205.375 60.36 207.349 60.8267 209.109 61.76C210.869 62.6933 212.255 64.04 213.269 65.8C214.282 67.5333 214.789 69.5467 214.789 71.84C214.789 74.1333 214.269 76.16 213.229 77.92C212.215 79.6533 210.815 80.9867 209.029 81.92C207.269 82.8533 205.295 83.32 203.109 83.32ZM203.109 77.4C204.415 77.4 205.522 76.92 206.429 75.96C207.362 75 207.829 73.6267 207.829 71.84C207.829 70.0533 207.375 68.68 206.469 67.72C205.589 66.76 204.495 66.28 203.189 66.28C201.855 66.28 200.749 66.76 199.869 67.72C198.989 68.6533 198.549 70.0267 198.549 71.84C198.549 73.6267 198.975 75 199.829 75.96C200.709 76.92 201.802 77.4 203.109 77.4ZM232.018 60.44C234.631 60.44 236.711 61.2933 238.258 63C239.831 64.68 240.618 67 240.618 69.96V83H233.818V70.88C233.818 69.3867 233.431 68.2267 232.658 67.4C231.884 66.5733 230.844 66.16 229.538 66.16C228.231 66.16 227.191 66.5733 226.418 67.4C225.644 68.2267 225.258 69.3867 225.258 70.88V83H218.418V60.68H225.258V63.64C225.951 62.6533 226.884 61.88 228.058 61.32C229.231 60.7333 230.551 60.44 232.018 60.44Z" fill="white"/>
</svg>
