<svg width="92" height="92" viewBox="0 0 92 92" fill="none" xmlns="http://www.w3.org/2000/svg">
<path d="M60 2.625C60.66 3.285 61.32 3.945 62 4.625C62.99 5.285 63.98 5.945 65 6.625C67.9761 9.45225 70.6256 12.2793 73 15.625C73.4744 16.2025 73.9488 16.78 74.4375 17.375C78.366 23.032 80.719 28.8708 82 35.625C81.505 36.615 83.005 36.115 82.5 37.125C83.16 37.455 82.32 38.285 83 38.625C84.0539 43.5738 84.4668 48.6105 83 53.5C83.5 54.5 83.5 54 84 55.125C84.5 56.25 84.5 56 85 56.5C85.376 56.876 85.32 57.285 86 57.625C85.8969 58.5944 85.7937 59.5638 85.6875 60.5625C85.652 64.0804 86.6681 66.0901 88.5 69.0625C91.2371 73.6269 91.7047 76.3398 91 81.625C89.6875 84.5625 89.6875 84.5625 88 86.625C84.7998 87.6917 83.1146 87.5735 79.8125 87.1875C78.9114 87.0857 78.0104 86.9838 77.082 86.8789C76.0514 86.7532 75.5514 83.6282 74.5 83.5C74.005 84.985 75.5 87.1875 74 89.625C70.0587 91.8772 67.3438 91.6352 63 90.625C62.1511 85.2487 61.9976 80.9713 63 75.625C62.01 75.13 62.01 75.13 61 74.625C57.1628 71.9506 57.1628 71.9506 56 69.625C55.01 69.295 54.02 68.965 53 68.625C53.0838 69.7104 53.1676 70.7958 53.2539 71.9141C53.3571 73.3594 53.46 74.8047 53.5625 76.25C53.6186 76.9629 53.6746 77.6757 53.7324 78.4102C54.025 82.6617 53.8955 86.4196 53 90.625C47.9204 92.0605 45.4126 91.6289 40.6875 89.1875C39.4249 88.4779 39.4249 88.4779 38.1367 87.7539C36.108 86.4693 36.5 87 34.5 86C34.5 85 34 85 33.5 84.6953C32.5 84.5 31.0857 84.6714 30.5 84.6953C24.0471 84.8461 20.2878 84.8039 15.375 80.125C14.5913 79.3 13.8075 78.475 13 77.625C11.352 76.9134 9.68835 76.2347 8 75.625C7.67 74.965 7.34 74.305 7 73.625C4.67843 73.2177 2.34312 72.8806 0 72.625C1.32834 68.6469 2.93295 66.3984 6 63.5625C8.74387 61.0153 10.3531 58.9522 12 55.625C13.5859 54.0625 13.5859 54.0625 15.375 52.625C18.6731 49.9085 21.6618 47.0146 24.625 43.9375C26 42.625 26 42.625 28 41.625C28.6806 41.0269 29.3612 40.4287 30.0625 39.8125C33.7858 37.0398 37.7231 35.3768 42 33.625C41.67 31.975 41.34 30.325 41 28.625C43.547 27.3515 44.4283 27.8231 47.125 28.5625C47.8495 28.7571 48.5739 28.9518 49.3203 29.1523C49.8746 29.3083 50.4289 29.4643 51 29.625C49.5244 25.1982 47.0994 24.7107 43 22.625C42.34 22.625 41.7991 22.125 41.1191 22.125C40.6191 22 38.6668 22.125 37.5 22.125C37 22.125 34.4825 22.625 30.0625 22.625C29.6529 22.625 28.6611 22.625 28 23C27.3389 23.375 26.4737 23.4912 25.6875 23.9375C22.6695 25.8325 22.3143 26.8861 21 28.5C19.6857 30.1139 19 31 18.5 31.5C18 32 18 32 17.5 33C17.368 33.264 17.1055 34 17 34.625C17.0348 35.3237 17.0696 36.0223 17.1055 36.7422C17.1325 37.6523 17.1596 38.5623 17.1875 39.5C17.2397 40.8574 17.2397 40.8574 17.293 42.2422C17.1963 43.0285 17.0996 43.8148 17 44.625C16.01 45.285 15.02 45.945 14 46.625C10.2678 45.002 8.51655 43.2112 6.76562 39.4453C5.72001 35.5936 5.5559 31.9155 5.5 27.9375C5.48163 27.2007 5.46326 26.4639 5.44434 25.7048C5.50117 20.6904 6.44838 18.1383 10 14.625C11.7031 13.1133 11.4531 12.6758 13 11.5C14.3612 10.3553 14.6112 10.1678 16 9C17 8.15909 18 7.33333 18.5 7C24.3296 3.11359 27.1089 2.57653 34 1.625C35.2994 1.41875 36.5988 1.2125 37.9375 1C45.2048 0.175878 53.2475 -0.573548 60 2.625ZM67 53C67.33 54.98 67.66 56.96 68 59C69.65 59.33 73.3 60.285 75 60.625C75 59.305 75 57.985 75 56.625C75 56 74.5 55.5 74 55C73.5 54.5 72.5 54 72 53.625C71.01 53.625 68.02 53 67 53Z" fill="white"/>
</svg>
